<?xml version="1.0" encoding="utf-8"?>

<!-- Uploaded to: SVG Repo, www.svgrepo.com, Generator: SVG Repo Mixer Tools -->
<svg version="1.1" id="Layer_1" xmlns="http://www.w3.org/2000/svg" xmlns:xlink="http://www.w3.org/1999/xlink"
	 viewBox="0 0 24 24" xml:space="preserve">
<defs>
	<linearGradient id="frameGradient" x1="2" y1="3" x2="22" y2="21" gradientUnits="userSpaceOnUse">
		<stop offset="0" style="stop-color:#22C55E"/>
		<stop offset="0.55" style="stop-color:#14B8A6"/>
		<stop offset="1" style="stop-color:#2563EB"/>
	</linearGradient>
	<linearGradient id="glassGradient" x1="4" y1="5" x2="20" y2="19" gradientUnits="userSpaceOnUse">
		<stop offset="0" style="stop-color:#F8FAFC"/>
		<stop offset="1" style="stop-color:#DBEAFE"/>
	</linearGradient>
	<radialGradient id="irisGradient" cx="12" cy="12.2" r="3.8" gradientUnits="userSpaceOnUse">
		<stop offset="0" style="stop-color:#38BDF8"/>
		<stop offset="1" style="stop-color:#1D4ED8"/>
	</radialGradient>
	<filter id="softShadow" x="-20%" y="-20%" width="140%" height="140%">
		<feDropShadow dx="0" dy="1" stdDeviation="1.2" flood-color="#0F172A" flood-opacity="0.2"/>
	</filter>
</defs>

<rect x="2" y="3" width="20" height="18" rx="2" fill="url(#frameGradient)" filter="url(#softShadow)"/>
<path d="M4,5h16v14H4V5z" fill="url(#glassGradient)" opacity="0.96"/>
<path d="M4,5h16v2.4H4V5z" fill="#FFFFFF" opacity="0.2"/>
<circle cx="6" cy="6.2" r="0.7" fill="#FFFFFF" opacity="0.9"/>
<circle cx="8" cy="6.2" r="0.7" fill="#FFFFFF" opacity="0.6"/>
<circle cx="10" cy="6.2" r="0.7" fill="#FFFFFF" opacity="0.35"/>
<path d="M12,8c-3.3,0-6,3.3-6,4s2.7,4,6,4s6-3.5,6-4S15.3,8,12,8z" fill="#FFFFFF"/>
<circle cx="12" cy="12" r="2.45" fill="url(#irisGradient)"/>
<circle cx="12" cy="12" r="1.15" fill="#0F172A" opacity="0.8"/>
<circle cx="12.8" cy="11.2" r="0.45" fill="#FFFFFF" opacity="0.95"/>
</svg>

